<svg height="64" viewBox="0 0 64 64" width="64" xmlns="http://www.w3.org/2000/svg"><g fill="none" fill-rule="evenodd"><path d="m7 25h40v24h-40z" fill="#595959"/><path d="m21 31h12v16h-12z" fill="#fff"/><path d="m18 43h46v20h-46z" fill="#22ba8e"/><path d="m27 1 26 24h-52z" fill="#e43535"/><g stroke="#80d25b" stroke-width="2"><path d="m18 48c2.7614237 0 5-2.2385763 5-5"/><path d="m18 63c2.7614237 0 5-2.2385763 5-5" transform="matrix(1 0 0 -1 0 121)"/><path d="m59 48c2.7614237 0 5-2.2385763 5-5" transform="matrix(-1 0 0 1 123 0)"/><path d="m59 63c2.7614237 0 5-2.2385763 5-5" transform="matrix(-1 0 0 -1 123 121)"/></g><circle cx="41" cy="53" fill="#80d25b" r="6"/></g></svg>